<?xml version="1.0" encoding="UTF-8" standalone="no"?>
<svg
   version="1.1"
   id="Layer_1"
   x="0px"
   y="0px"
   width="428.22968"
   viewBox="0 0 428.22968 428.46664"
   enable-background="new 0 0 612 611"
   xml:space="preserve"
   sodipodi:docname="file.svg"
   height="428.46664"
   inkscape:version="1.4.3 (fcd0343856, 2026-01-01)"
   xmlns:inkscape="http://www.inkscape.org/namespaces/inkscape"
   xmlns:sodipodi="http://sodipodi.sourceforge.net/DTD/sodipodi-0.dtd"
   xmlns="http://www.w3.org/2000/svg"
   xmlns:svg="http://www.w3.org/2000/svg"><defs
   id="defs19" /><sodipodi:namedview
   id="namedview19"
   pagecolor="#ffffff"
   bordercolor="#999999"
   borderopacity="1"
   inkscape:showpageshadow="0"
   inkscape:pageopacity="0"
   inkscape:pagecheckerboard="0"
   inkscape:deskcolor="#d1d1d1"
   inkscape:zoom="1.3153595"
   inkscape:cx="212.48944"
   inkscape:cy="212.48944"
   inkscape:window-width="1854"
   inkscape:window-height="1011"
   inkscape:window-x="0"
   inkscape:window-y="0"
   inkscape:window-maximized="1"
   inkscape:current-layer="Layer_1" />

<path
   fill="#fbf6ee"
   opacity="1"
   stroke="none"
   d="m 76.315082,105.11758 c 2.08655,-5.871769 5.63266,-10.790039 11.3897,-13.159749 10.031,-4.12895 21.117778,0.68638 26.732648,11.014519 0.46238,0.85054 0.85414,1.73947 1.29541,2.64479 14.37109,-10.430379 23.38461,-7.526829 35.39038,11.3979 1.42647,-0.70274 3.01233,-1.23819 4.31883,-2.16672 9.89804,-7.03457 26.26593,0.80055 28.99893,11.75286 3.19364,12.79823 6.56321,25.55392 9.98764,38.29283 3.59607,13.3775 7.39957,26.69919 11.01938,40.07043 6.11551,22.5903 12.14804,45.20313 18.23477,67.80121 3.17957,11.8049 6.94117,23.48434 9.46482,35.42654 3.12109,14.76929 5.48459,29.82337 -0.72477,44.46241 -2.70959,6.38812 0.31073,12.09149 1.22428,18.00714 0.71954,4.65902 2.30221,9.23813 3.95874,13.68228 1.34097,3.59769 -0.24387,5.94696 -3.11579,6.56491 -1.62225,0.34903 -4.95474,-1.44589 -5.51638,-2.99866 -2.17792,-6.02166 -2.98123,-12.56381 -5.36325,-18.48281 -3.46527,-8.61085 -0.82251,-16.37308 1.27206,-24.59757 3.35632,-13.17859 1.07608,-26.26529 -2.31827,-39.17908 -3.39746,-12.92584 -6.67773,-25.8829 -10.14459,-38.78997 -4.49872,-16.74866 -9.19272,-33.44486 -13.69095,-50.19361 -6.12124,-22.79214 -12.13202,-45.61389 -18.20105,-68.42003 -1.62024,-6.08859 -3.18371,-12.19481 -4.9505,-18.24115 -1.6297,-5.57716 -6.82001,-8.93098 -11.95224,-7.98149 -6.70836,1.24111 -9.56152,4.35881 -8.39007,11.56198 1.44642,8.89405 3.99873,17.61463 6.20398,26.37723 2.59869,10.32602 5.25714,20.63855 8.04223,30.91559 2.02118,7.45822 4.2897,14.84942 6.44995,22.26996 0.27863,0.95703 0.64658,1.89514 0.84076,2.86844 0.70194,3.51812 0.50165,7.07672 -3.46011,8.2059 -3.98151,1.13476 -5.12555,-2.50333 -5.90967,-5.28281 -2.99942,-10.63183 -5.72884,-21.33978 -8.56097,-32.01883 -6.09511,-22.98266 -12.05085,-46.00381 -18.3767,-68.9228 -1.79542,-6.50492 -5.81614,-9.45493 -13.79345,-7.65247 -5.10772,1.1541 -8.09226,6.54147 -6.51769,12.58109 5.55592,21.31118 11.29569,42.57441 16.95248,63.85936 3.486,13.11694 7.09716,26.20495 10.2179,39.4086 0.36037,1.52465 -1.76509,4.86926 -3.28563,5.2648 -1.56799,0.40783 -4.80594,-1.29157 -5.55046,-2.89005 -1.78557,-3.83365 -2.58311,-8.13647 -3.69835,-12.27182 -4.8692,-18.05511 -9.74736,-36.108 -14.54886,-54.1812 -4.14915,-15.61775 -8.1109,-31.28584 -12.35499,-46.87738 -1.06604,-3.91636 -2.29637,-8.03079 -4.52567,-11.32768 -2.93645,-4.342709 -7.954528,-5.021439 -12.886398,-2.56137 -4.26609,2.12796 -5.77996,6.08203 -4.97279,10.46622 1.21893,6.62085 2.90878,13.16537 4.62732,19.682 5.81898,22.06525 11.716278,44.10993 17.628738,66.15039 3.15877,11.77521 6.19185,23.59214 9.74338,35.24955 1.17135,3.84482 0.036,5.90814 -3.1261,7.08511 -3.56054,1.32529 -5.14684,-1.33102 -5.96515,-4.11899 -1.81334,-6.17782 -3.34957,-12.4367 -5.01961,-18.65692 -3.725228,-13.87521 -7.441358,-27.75287 -11.202218,-41.61844 -3.71741,-13.70541 -7.44346,-27.40878 -11.24767,-41.09027 -2.08682,-7.505 -7.03944,-10.61974 -13.50168,-8.69818 -5.46297,1.62442 -8.20563,7.61298 -6.41316,14.31067 4.9987,18.67802 10.07506,37.33529 15.08075,56.01147 5.28493,19.71808 10.53859,39.44452 15.77597,59.1753 2.41626,9.10275 4.86772,18.19909 7.04428,27.35989 0.41035,1.72711 0.22501,4.33301 -0.83104,5.45978 -1.01587,1.08398 -3.6331,1.31164 -5.33441,0.94098 -1.99892,-0.43549 -3.78137,-1.89957 -5.63619,-2.95542 -8.34669,-4.75128 -17.06872,-8.96438 -24.92721,-14.42038 -9.09599,-6.31521 -17.81171,-13.31207 -25.97077,-20.7995 -6.23389,-5.72076 -12.96112,-6.82928 -20.63925,-5.37906 -4.35165,0.8219 -4.72095,2.54877 -1.80333,6.08707 10.23408,12.41123 20.68361,24.65888 30.52449,37.37634 9.92772,12.82969 18.83414,26.45942 28.95263,39.12793 5.97558,7.48157 13.22325,14.00745 20.29663,20.53193 5.22691,4.82132 10.940878,9.16174 16.719618,13.32534 6.72285,4.84385 13.67327,9.38721 20.67802,13.81903 4.61574,2.92032 7.51407,6.7212 8.74756,12.10984 1.55134,6.77716 3.50195,13.46713 5.42015,20.15457 1.08426,3.78012 0.32429,7.00024 -3.59193,7.87836 -3.91451,0.87774 -5.27848,-2.69355 -6.1642,-5.63349 -1.4692,-4.87671 -3.12003,-9.82351 -3.60021,-14.8454 -0.81583,-8.5321 -6.22407,-12.46045 -12.89896,-16.57571 -19.398448,-11.95975 -37.629118,-25.67029 -52.159038,-43.38309 -10.59923,-12.92105 -19.66629,-27.08636 -29.86307,-40.35367 -10.4978,-13.65899 -21.58505,-26.86358 -32.3233738,-40.33953 -7.776695,-9.75928 -5.55957,-16.02112 6.9466138,-18.45713 11.4401,-2.22836 21.98719,-0.18802 31.14074,7.86301 11.6891,10.28122 23.662,20.26279 37.68692,27.34601 0.98281,0.4964 2.70079,0.66275 3.481,0.12231 0.80076,-0.55478 1.4063,-2.29031 1.17363,-3.29523 -1.8255,-7.88439 -3.79222,-15.73877 -5.86729,-23.56213 -5.79063,-21.83157 -11.64301,-43.64682 -17.49406,-65.46234 -3.20328,-11.94333 -6.10306,-23.98331 -9.78103,-35.77974 -3.64431,-11.68857 2.08365,-26.19324 17.99405,-27.63181 0.30616,-0.0276 0.59095,-0.29158 1.29569,-0.23616 1.91633,0.53336 3.42268,0.85758 5.21748,1.24389 0,-4.33007 0,-8.07399 0,-11.81792 z"
   id="path2" />
<path
   fill="#fbf6ee"
   opacity="1"
   stroke="none"
   d="m 260.22281,149.9197 c -0.58529,1.7852 -0.77642,3.58092 -1.77444,4.45001 -1.4086,1.22664 -4.28305,2.90954 -4.98941,2.372 -1.63175,-1.24187 -3.44077,-3.84528 -3.20816,-5.64134 0.67889,-5.24138 2.21515,-10.3871 3.60818,-15.51795 5.83859,-21.50445 11.46241,-43.074189 17.78385,-64.436869 2.24829,-7.59787 -1.96576,-14.88298 -6.20099,-15.90952 -7.20972,-1.74745 -12.95548,2.73026 -15.03598,10.92348 -3.6467,14.36139 -7.77262,28.60034 -11.53153,42.934189 -4.30282,16.40803 -8.32809,32.88907 -12.66452,49.28799 -2.25604,8.53176 -4.99603,16.93444 -7.36508,25.43786 -0.88324,3.17031 -2.64102,5.4699 -5.9079,4.4259 -3.43802,-1.0987 -3.64715,-4.18189 -2.74435,-7.47086 3.83499,-13.9707 7.57239,-27.96823 11.32193,-41.96225 6.61969,-24.7056 13.18872,-49.424849 19.8544,-74.118009 1.77295,-6.56793 3.54538,-12.86545 10.45477,-16.67731 7.09387,-3.91366 13.65921,-3.20466 20.24075,0.0964 2.9318,1.4705 4.55381,1.24048 6.06565,-1.48425 8.40017,-15.1388 16.42294,-17.50312 31.51843,-9.31739 0.42835,0.23227 0.8985,0.38753 1.70578,0.72997 1.12668,-1.95943 2.21344,-3.9521 3.39548,-5.88656 4.00424,-6.55304 12.21435,-10.2347 18.67334,-8.41318 11.43951,3.22606 17.67163,9.63383 17.86761,18.37119 0.15372,6.85468 0.15372,6.85468 7.2844,6.98322 10.51858,0.18964 19.90548,12.45972 17.3623,23.38719 -2.87711,12.3622 -6.32483,24.5925 -9.57696,36.866239 -4.66785,17.61669 -9.38593,35.22007 -14.07731,52.83052 -3.49166,13.10712 -6.98443,26.2139 -10.44659,39.3288 -0.32422,1.22815 -0.43161,2.51352 -0.93829,5.57855 6.36047,-3.64425 11.80658,-6.15915 16.5654,-9.61932 9.44689,-6.8689 18.82565,-13.89902 27.66027,-21.52545 10.82914,-9.3483 28.34653,-10.55927 39.56852,-1.94666 4.36102,3.34705 4.62591,5.1405 1.14685,9.42395 -12.715,15.65512 -25.66681,31.1232 -38.12738,46.97772 -7.24918,9.22367 -13.75846,19.03083 -20.55429,28.60837 -9.60389,13.53504 -21.23081,25.18228 -34.39325,35.12476 -10.5531,7.9714 -21.90671,14.87716 -32.74756,22.4805 -1.39502,0.97839 -2.15189,3.21777 -2.67542,5.02612 -2.10745,7.27911 -4.17868,14.57803 -5.91376,21.95187 -0.91326,3.88123 -2.95019,5.56504 -6.71313,4.63907 -3.94849,-0.97161 -3.24042,-3.99112 -2.48239,-6.83645 2.22821,-8.3642 4.80557,-16.65235 6.61786,-25.10501 1.45703,-6.79569 7.66571,-7.56403 11.96637,-10.79312 10.54736,-7.91944 21.17892,-15.73109 31.59701,-23.81748 21.86975,-16.97519 35.5918,-40.74701 51.85459,-62.41269 5.95074,-7.92764 12.54019,-15.37622 18.84631,-23.03665 3.05194,-3.70743 6.28238,-7.28314 9.10208,-11.15854 1.04862,-1.44119 2.13727,-4.46274 1.47754,-5.18643 -1.19781,-1.314 -3.65347,-1.79947 -5.65042,-2.01428 -11.44547,-1.23114 -18.97507,6.33334 -26.19553,13.06945 -11.92694,11.12683 -26.28476,18.37821 -39.60135,27.30689 -7.40881,4.96753 -15.86303,5.07645 -23.87695,7.20483 -10.02548,2.66266 -18.53705,7.83335 -25.7392,15.03614 -3.9494,3.94976 -7.26925,8.58392 -10.50512,13.16906 -1.61859,2.29352 -2.84018,4.76133 -6.0709,3.33432 -3.50009,-1.54593 -3.9324,-4.64251 -2.06625,-7.48092 3.54834,-5.39692 6.86212,-11.24854 11.53955,-15.52692 5.91605,-5.41135 12.75809,-10.07248 19.84043,-13.86148 5.414,-2.89645 11.74993,-4.23398 17.81372,-5.69089 3.7427,-0.89926 5.98678,-2.15161 7.06302,-6.27179 7.38348,-28.26587 15.09741,-56.44517 22.62011,-84.67496 4.70471,-17.65481 9.34668,-35.327489 13.8306,-53.039299 1.27512,-5.03687 -2.35611,-10.70592 -7.11194,-11.39815 -6.02429,-0.87688 -12.22287,1.24672 -13.67758,7.33528 -3.89493,16.30214 -8.81186,32.35758 -13.15485,48.556049 -2.97525,11.09712 -5.59588,22.28895 -8.51696,33.40114 -1.68134,6.39607 -3.63257,12.72157 -5.48728,19.07156 -0.89871,3.07696 -1.70813,6.62375 -6.11185,5.33777 -4.59896,-1.34302 -3.45321,-5.02979 -2.59466,-8.25696 4.36145,-16.39392 8.81094,-32.7644 13.19952,-49.15117 5.71442,-21.337359 11.42926,-42.674729 17.05887,-64.034529 0.62845,-2.38444 0.91684,-4.90808 0.99274,-7.37855 0.17276,-5.62441 -2.50421,-9.62849 -6.63117,-10.33561 -7.07043,-1.21148 -11.63955,1.05999 -13.37576,7.21903 -4.47397,15.87134 -8.76248,31.79529 -13.06732,47.71383 -4.55945,16.860129 -9.06845,33.733979 -13.565,50.611009 -1.52555,5.72589 -2.93253,11.48328 -4.4224,17.21881 -0.45837,1.76451 -0.53168,3.95134 -1.64172,5.14389 -1.43613,1.54282 -3.83527,3.31818 -5.63968,3.14258 -3.25797,-0.31698 -3.78223,-3.22708 -3.0033,-6.17755 1.9072,-7.22429 3.81137,-14.44943 5.7439,-21.66698 7.13513,-26.64814 14.31299,-53.284909 21.39828,-79.946299 1.53663,-5.78224 -0.57043,-10.57086 -5.38931,-13.1086 -3.73742,-1.96821 -10.50506,-0.95233 -12.92236,2.78321 -1.99213,3.0785 -3.04828,6.86842 -4.03299,10.47581 -6.14487,22.51082 -12.18692,45.049929 -18.1886,67.599489 -2.20343,8.27859 -4.20413,16.61116 -6.33127,25.3222 z"
   id="path3" />
<path
   fill="#fbf6ee"
   opacity="1"
   stroke="none"
   d="m 186.60071,247.53567 c 1.50238,-1.61746 3.18134,-4.01154 4.34476,-3.78284 1.84991,0.36365 4.35156,2.18613 4.85068,3.89575 4.18795,14.34488 7.98697,28.80344 11.88473,43.23273 0.30069,1.11334 0.93167,2.43659 0.59268,3.36368 -0.79803,2.18256 -2.09005,4.18445 -3.18222,6.25943 -1.95556,-1.09903 -5.23739,-1.82831 -5.66281,-3.35397 -4.55398,-16.33249 -8.65631,-32.79093 -12.82782,-49.61478 z"
   id="path4" />
<path
   fill="#fbf6ee"
   opacity="1"
   stroke="none"
   d="m 310.86499,382.21499 c 0.62506,-2.48041 1.39087,-4.60727 2.15671,-6.73413 2.04303,0.79889 4.60807,1.06711 6.04581,2.48132 10.65607,10.48151 21.06598,21.21277 31.60898,31.81009 2.08709,2.09787 4.69146,4.61875 1.57165,6.8953 -1.75082,1.27761 -6.40243,1.25641 -7.84344,-0.1417 -11.39169,-11.05246 -22.32483,-22.57757 -33.53971,-34.31088 z"
   id="path5" />
<path
   fill="#fbf6ee"
   opacity="1"
   stroke="none"
   d="m 161.45331,17.340771 c -1.12153,-4.41958 -2.45056,-8.4059 -2.94668,-12.493325 -0.19324,-1.591926 1.54005,-4.87349696 2.30938,-4.8472899625 2.1157,0.0720500025 5.36963,0.9555820025 6.05085,2.4716489625 2.01425,4.482933 3.08786,9.403446 4.37881,14.193366 2.82462,10.48013 5.42816,21.02179 8.39972,31.45926 0.96048,3.37367 -0.58279,5.6834 -3.02744,6.32298 -1.56842,0.41034 -4.92303,-1.32655 -5.55941,-2.88431 -2.17496,-5.32392 -3.60086,-10.96728 -5.12427,-16.54024 -1.56677,-5.73167 -2.91287,-11.52365 -4.48096,-17.68209 z"
   id="path6" />
<path
   fill="#fbf6ee"
   opacity="1"
   stroke="none"
   d="m 134.49793,43.850181 c 3.73245,6.27634 7.53836,12.10749 10.60568,18.30422 0.7299,1.47461 -0.40871,4.89726 -1.81567,6.06468 -1.02314,0.84895 -4.98941,0.16533 -5.7746,-1.0462 -4.49884,-6.94174 -8.65082,-14.13851 -12.38377,-21.52013 -0.71968,-1.42313 0.37301,-5.31586 1.62095,-5.88126 3.3508,-1.51808 5.97036,0.57094 7.74741,4.07869 z"
   id="path7" />
<path
   fill="#fbf6ee"
   opacity="1"
   stroke="none"
   d="m 358.27384,367.68392 c -8.0806,-4.12634 -15.96515,-8.19467 -23.54447,-12.76876 -1.2063,-0.72794 -1.61422,-3.83011 -1.29483,-5.6413 0.19223,-1.09009 2.40787,-2.18118 3.89649,-2.56525 1.08017,-0.27868 2.5748,0.39044 3.68561,0.99973 5.79574,3.17898 11.66305,6.26413 17.21093,9.83899 2.02903,1.30737 3.7407,3.69565 4.55664,5.96496 0.27036,0.7519 -2.716,2.67484 -4.51037,4.17163 z"
   id="path8" />
<path
   fill="#fbf6ee"
   opacity="1"
   stroke="none"
   d="m 294.34067,408.07388 c 2.37546,4.02386 4.53317,7.75452 6.68555,11.48822 1.84689,3.20386 1.58807,6.2619 -1.60901,8.2008 -3.4834,2.11255 -5.17947,-0.98541 -6.59015,-3.31231 -3.59201,-5.92493 -7.24801,-11.85315 -10.19565,-18.10211 -0.94552,-2.00452 -0.716,-6.1139 0.66864,-7.32493 2.43488,-2.12957 5.15717,-0.32205 6.79825,2.50751 1.24179,2.14102 2.67453,4.17136 4.24237,6.54282 z"
   id="path9" />
<path
   fill="#fbf6ee"
   opacity="1"
   stroke="none"
   d="m 207.3002,20.144681 c 1.72251,-1.06254 3.44501,-2.12507 5.62574,-2.76332 1.07245,0.56488 1.68673,0.70548 2.30099,0.84608 0,0 0.0516,-0.0488 -0.0662,0.36397 0.28629,0.64927 0.69034,0.88574 1.09442,1.12222 0,0 0.0656,-0.0575 -0.0965,0.40133 -0.0893,9.12695 -0.0165,17.79505 0.0562,26.46314 0,0 0.008,0.0524 -0.31635,0.044 -1.0841,0.84765 -1.84399,1.70369 -2.60391,2.55976 0,0 0.0187,-0.003 -0.39566,0.013 -1.82266,-0.0194 -3.23093,-0.0548 -4.63922,-0.0901 0,0 10e-4,0.0962 0.0319,-0.20769 -0.3136,-0.80281 -0.65781,-1.30169 -1.00198,-1.80059 0,0 -0.0143,0.0886 0.0382,-0.37487 0.0258,-9.16795 -9.5e-4,-17.87243 -0.0277,-26.5769 z"
   id="path10" />
<path
   fill="#fbf6ee"
   opacity="1"
   stroke="none"
   d="m 212.66501,321.9298 c -2.36917,-0.16802 -5.9812,-0.009 -6.34073,-1.01339 -1.27996,-3.57651 -2.4989,-7.76844 -1.75613,-11.31122 0.77017,-3.67355 4.49347,-2.56384 6.89902,-0.793 3.17917,2.34033 3.8208,9.49924 1.19784,13.11761 z"
   id="path11" />
<path
   fill="#fbf6ee"
   opacity="1"
   stroke="none"
   d="m 75.878972,105.13815 c 0.43611,3.72336 0.43611,7.46728 0.43611,11.79735 -1.7948,-0.38631 -3.30115,-0.71053 -4.91745,-1.39339 2.47577,-0.0261 2.76375,-1.47771 2.84542,-3.63773 0.0854,-2.26045 0.77458,-4.49807 1.63592,-6.76623 z"
   id="path12" />
<path
   fill="#fbf6ee"
   opacity="1"
   stroke="none"
   d="m 206.97916,20.420711 c 0.34781,8.42844 0.37454,17.13292 0.39258,26.31052 -0.36008,-1.8904 -0.99359,-4.25212 -1.00858,-6.61776 -0.0409,-6.47136 0.17859,-12.94437 0.616,-19.69276 z"
   id="path13" />
<path
   fill="#fbf6ee"
   opacity="1"
   stroke="none"
   d="m 216.5698,46.287161 c -0.42762,-8.37715 -0.5004,-17.04525 -0.43903,-26.20572 0.4798,2.54282 1.082,5.57514 1.11603,8.61384 0.0646,5.76506 -0.19641,11.53376 -0.677,17.59188 z"
   id="path14" />
<path
   fill="#fbf6ee"
   opacity="1"
   stroke="none"
   d="m 208.50882,49.335021 c 1.15927,-0.19495 2.56754,-0.1596 4.39917,-0.14333 -0.79657,3.65889 -2.56534,0.9447 -4.39917,0.14333 z"
   id="path15" />
<path
   fill="#fbf6ee"
   opacity="1"
   stroke="none"
   d="m 213.69883,49.089791 c 0.35577,-0.76404 1.11566,-1.62008 2.22305,-2.48027 -0.37464,0.79335 -1.09674,1.59081 -2.22305,2.48027 z"
   id="path16" />
<path
   fill="#fbf6ee"
   opacity="1"
   stroke="none"
   d="m 207.39319,47.377081 c 0.24072,0.21827 0.58493,0.71715 0.9465,1.52318 -0.26937,-0.20944 -0.55621,-0.72599 -0.9465,-1.52318 z"
   id="path17" />
<path
   fill="#fbf6ee"
   opacity="1"
   stroke="none"
   d="m 215.15445,17.880661 c -0.54178,0.20618 -1.15606,0.0656 -1.94464,-0.38385 0.50784,-0.19353 1.18997,-0.0782 1.94464,0.38385 z"
   id="path18" />
<path
   fill="#fbf6ee"
   opacity="1"
   stroke="none"
   d="m 216.26279,19.362961 c -0.41168,0.11419 -0.81573,-0.12228 -1.11529,-0.73864 0.444,-0.12394 0.78347,0.13201 1.11529,0.73864 z"
   id="path19" />
</svg>
