<?xml version="1.0" standalone="no"?>
<!DOCTYPE svg PUBLIC "-//W3C//DTD SVG 20010904//EN"
 "http://www.w3.org/TR/2001/REC-SVG-20010904/DTD/svg10.dtd">
<svg version="1.0" xmlns="http://www.w3.org/2000/svg"
 width="1040.000000pt" height="470.000000pt" viewBox="0 0 1040.000000 470.000000"
 preserveAspectRatio="xMidYMid meet">

<g transform="translate(0.000000,470.000000) scale(0.100000,-0.100000)"
fill="#fbf6ee" stroke="none">
<path d="M665 4661 c-74 -21 -147 -58 -208 -105 -34 -26 -57 -36 -85 -36 -47
-1 -73 -15 -112 -65 -135 -170 -244 -663 -226 -1019 12 -233 50 -397 127 -553
106 -215 288 -350 517 -383 288 -42 568 142 692 456 86 215 115 384 115 664
-1 367 -59 612 -190 795 -86 121 -219 216 -351 250 -76 20 -204 18 -279 -4z
m287 -31 c188 -58 337 -230 416 -480 52 -165 66 -271 66 -500 -1 -465 -96
-759 -308 -957 -112 -105 -220 -153 -342 -153 -292 0 -478 312 -502 839 -18
391 46 773 171 1014 36 72 39 80 24 94 -14 15 -13 19 21 46 138 109 302 144
454 97z"/>
<path d="M5168 4665 c-3 -3 -67 -7 -142 -9 -119 -3 -141 -6 -164 -23 l-27 -20
-6 -199 c-12 -371 -22 -1648 -15 -1757 12 -163 -9 -152 293 -152 223 0 257 3
336 23 321 81 545 262 612 496 24 82 17 193 -17 266 -91 197 -329 355 -584
388 l-55 7 77 50 c152 99 257 245 290 405 28 136 -12 259 -114 350 -72 65
-209 134 -304 154 -90 18 -173 28 -180 21z m97 -80 c227 -59 342 -212 305
-405 -13 -70 -68 -182 -116 -238 -70 -83 -246 -196 -352 -227 l-23 -7 6 434
c4 238 8 439 10 446 6 17 97 15 170 -3z m215 -1001 c92 -27 171 -75 246 -149
191 -190 185 -408 -15 -605 -120 -117 -234 -175 -408 -205 -92 -16 -220 -20
-241 -7 -10 7 -10 41 -2 168 5 87 10 261 10 385 0 124 3 267 6 317 l7 91 71
11 c39 7 78 13 86 15 33 8 188 -5 240 -21z"/>
<path d="M8907 3890 c-50 -15 -57 -27 -57 -102 l0 -69 37 -16 c49 -20 144 -14
173 12 15 14 20 30 20 72 0 30 -4 63 -10 73 -18 34 -99 49 -163 30z"/>
<path d="M1884 3660 c-68 -21 -66 -1 -55 -465 10 -484 3 -455 110 -463 72 -5
105 2 131 28 18 18 20 34 20 160 0 225 41 454 104 579 29 56 89 117 125 126
65 16 77 -77 67 -516 -3 -157 -3 -300 0 -317 7 -36 44 -55 107 -56 115 -1 127
21 127 241 0 329 -43 521 -138 619 -42 43 -72 56 -134 55 -98 0 -176 -69 -227
-200 l-30 -76 -3 124 c-3 120 -4 124 -29 143 -30 23 -127 33 -175 18z"/>
<path d="M6460 3657 c-19 -6 -39 -21 -45 -33 -10 -21 -2 -795 9 -840 10 -38
59 -57 137 -52 106 6 105 4 113 221 8 194 24 316 57 424 45 146 116 243 178
243 49 0 55 -18 59 -186 4 -151 5 -155 30 -174 30 -24 97 -26 149 -5 l36 15
-6 52 c-11 88 -56 213 -93 256 -80 94 -207 97 -296 8 -32 -32 -98 -161 -98
-192 0 -10 -3 -15 -6 -11 -4 3 -9 61 -13 129 l-6 123 -30 14 c-40 20 -132 24
-175 8z"/>
<path d="M9654 3659 c-67 -19 -65 0 -55 -464 11 -489 3 -457 119 -463 79 -5
129 14 136 51 3 12 7 101 10 197 9 327 78 548 195 627 44 30 57 29 78 -4 16
-25 18 -61 18 -425 0 -445 -4 -421 74 -439 48 -11 116 2 140 26 13 13 17 46
19 193 4 196 -14 374 -48 484 -25 81 -87 170 -136 193 -40 19 -115 22 -156 6
-65 -25 -129 -107 -165 -211 l-18 -55 -5 128 c-5 139 -5 138 -70 157 -42 12
-93 12 -136 -1z"/>
<path d="M8167 3650 c-43 -13 -55 -28 -63 -76 l-6 -45 -47 44 c-57 53 -105 71
-191 72 -83 0 -156 -34 -229 -106 -89 -90 -132 -209 -132 -371 -2 -312 216
-520 432 -410 49 24 58 34 92 102 21 41 49 111 61 155 13 44 26 73 29 65 2 -8
12 -49 21 -91 27 -123 81 -203 161 -240 142 -66 270 60 340 335 27 105 31 141
16 150 -17 11 -41 -6 -41 -29 0 -43 -50 -218 -80 -284 -33 -70 -99 -141 -131
-141 -11 0 -24 10 -29 23 -14 34 -40 431 -40 622 0 192 -4 207 -68 225 -43 11
-56 11 -95 0z m-187 -92 c51 -27 95 -96 109 -173 23 -121 -76 -474 -158 -566
-31 -36 -44 -43 -74 -43 -74 0 -123 80 -152 244 -42 237 24 478 148 539 53 27
72 26 127 -1z"/>
<path d="M8904 3650 c-58 -18 -59 -21 -59 -284 0 -191 4 -260 18 -331 31 -153
85 -243 171 -284 135 -66 258 42 330 291 33 115 42 183 26 193 -19 12 -37 -18
-45 -73 -11 -71 -53 -200 -88 -265 -56 -106 -132 -148 -148 -82 -14 55 -30
298 -35 525 -6 276 -7 284 -39 298 -38 17 -96 22 -131 12z"/>
<path d="M3157 3634 c-202 -64 -289 -443 -160 -697 60 -120 178 -202 288 -202
52 0 68 5 114 34 55 36 113 105 150 179 29 58 101 274 95 284 -3 4 -13 8 -23
8 -14 0 -26 -26 -55 -114 -106 -323 -285 -453 -377 -274 -21 41 -52 199 -65
327 l-7 71 44 0 c142 0 234 96 234 245 0 66 -17 103 -59 131 -35 22 -122 27
-179 8z m174 -64 c28 -52 25 -125 -8 -190 -37 -71 -68 -93 -143 -98 -69 -5
-68 -8 -46 98 19 86 47 149 87 194 43 49 83 48 110 -4z"/>
<path d="M1758 1561 c-160 -5 -190 -9 -205 -23 -16 -17 -16 -19 0 -35 16 -16
40 -18 208 -18 l191 0 -7 -240 c-4 -132 -8 -452 -8 -710 -2 -435 -1 -473 16
-498 15 -23 24 -27 66 -27 33 0 53 5 64 18 26 29 36 228 44 874 l6 588 26 1
c337 11 395 19 360 54 -12 13 -62 16 -294 19 -154 2 -364 1 -467 -3z"/>
<path d="M5120 1539 c-13 -5 -28 -15 -32 -22 -4 -7 -8 -91 -8 -188 0 -97 -3
-257 -7 -356 l-6 -181 -31 -9 c-44 -12 -46 -40 -4 -51 l33 -8 5 -343 c5 -325
6 -343 24 -357 24 -17 96 -18 119 -1 23 17 34 133 42 445 l7 252 217 0 216 0
-3 -227 c-4 -283 4 -448 25 -468 21 -22 106 -20 126 3 21 23 37 234 37 493 l0
197 58 8 c76 12 78 35 5 48 l-53 10 0 367 c0 420 6 394 -92 394 -94 -1 -88 22
-96 -396 l-7 -364 -32 1 c-18 0 -117 1 -219 2 l-186 2 7 363 c7 319 6 364 -8
375 -20 17 -106 24 -137 11z"/>
<path d="M8375 1248 c-11 -6 -23 -16 -27 -22 -4 -6 -8 -116 -8 -245 l0 -235
-27 27 c-61 57 -137 71 -213 36 -120 -54 -180 -164 -180 -331 0 -189 119 -327
262 -303 61 11 102 53 135 143 l28 77 5 -93 c4 -83 8 -96 29 -113 30 -25 101
-25 130 -1 22 17 22 18 21 519 0 276 -3 508 -6 516 -12 33 -107 49 -149 25z
m-93 -495 c37 -33 58 -89 58 -151 0 -112 -70 -332 -120 -377 -47 -42 -107 -8
-137 79 -14 39 -18 82 -18 182 0 125 1 133 30 189 50 98 129 131 187 78z"/>
<path d="M3150 908 c-42 -29 -80 -103 -87 -172 -11 -110 60 -229 158 -263 58
-21 58 -25 7 -131 -34 -72 -94 -138 -134 -148 -59 -15 -78 58 -90 329 -5 138
-8 159 -24 167 -26 14 -86 12 -98 -2 -6 -7 -18 -64 -27 -127 -22 -150 -49
-254 -80 -307 -28 -47 -60 -64 -80 -43 -18 19 -45 238 -52 423 -3 83 -9 158
-14 167 -10 20 -51 29 -97 22 -57 -10 -65 -45 -59 -248 3 -125 9 -183 22 -220
51 -149 190 -230 273 -160 34 29 58 74 82 159 l17 60 12 -48 c29 -116 96 -191
176 -196 60 -4 76 1 116 37 51 46 81 92 114 176 l26 64 60 6 c65 6 195 60 184
77 -4 6 -30 -2 -67 -21 -35 -18 -84 -33 -115 -36 l-55 -6 9 49 c16 93 10 274
-11 327 -31 82 -101 109 -166 65z m91 -8 c50 -27 77 -155 60 -294 -14 -122
-17 -129 -50 -121 -43 10 -94 58 -124 116 -25 47 -28 63 -25 124 2 48 10 84
26 115 35 68 66 84 113 60z"/>
<path d="M7161 821 c-17 -17 -18 -34 -14 -287 5 -311 6 -328 36 -349 29 -21
100 -19 126 3 19 15 22 33 31 182 16 277 85 451 173 438 33 -5 40 -75 34 -344
-7 -277 -7 -278 74 -282 88 -5 92 5 91 185 -2 239 -34 367 -108 433 -85 75
-215 10 -251 -125 -6 -24 -9 -14 -14 54 -8 101 -17 111 -101 111 -43 0 -63 -5
-77 -19z"/>
<path d="M3857 819 c-50 -12 -85 -31 -128 -72 -30 -28 -38 -45 -49 -103 -20
-99 -18 -237 3 -307 30 -98 119 -168 213 -167 38 1 103 31 131 61 102 111 111
435 15 543 -22 25 -91 56 -122 55 -14 -1 -42 -5 -63 -10z m113 -25 c47 -19 73
-57 95 -139 44 -169 -12 -395 -109 -441 -55 -27 -81 -14 -108 54 -21 53 -23
71 -23 262 l0 205 -23 3 c-33 5 -23 24 28 50 52 26 85 28 140 6z"/>
<path d="M6375 806 c-118 -54 -181 -181 -173 -344 6 -107 33 -176 93 -231 73
-67 172 -77 236 -24 37 31 46 49 80 148 l27 79 12 -59 c28 -134 109 -218 192
-200 39 9 94 58 118 106 22 42 70 201 70 230 0 29 -29 22 -36 -8 -24 -111 -50
-189 -75 -228 -31 -49 -72 -76 -90 -58 -12 12 -38 341 -39 490 0 117 -4 123
-84 123 -49 0 -76 -24 -76 -66 0 -20 -3 -19 -35 12 -61 57 -139 68 -220 30z
m195 -65 c53 -56 64 -107 44 -213 -37 -204 -95 -321 -159 -320 -64 0 -104 89
-112 248 -6 114 10 188 54 256 52 78 116 89 173 29z"/>
<path d="M8856 815 c-84 -30 -130 -109 -107 -185 16 -53 50 -91 135 -150 106
-73 121 -107 91 -208 -22 -73 -67 -92 -131 -53 -48 29 -71 97 -56 162 15 64
15 69 -3 69 -20 0 -38 -74 -32 -133 12 -131 147 -181 285 -107 75 40 109 95
97 158 -11 61 -36 91 -120 147 -44 29 -95 69 -114 89 -29 30 -34 43 -34 82 0
40 4 51 31 76 69 61 142 23 142 -73 0 -35 4 -49 14 -49 30 0 35 69 8 119 -35
64 -119 87 -206 56z"/>
</g>
</svg>
